<?xml version="1.0" standalone="no"?>
<!DOCTYPE svg PUBLIC "-//W3C//DTD SVG 20010904//EN"
 "http://www.w3.org/TR/2001/REC-SVG-20010904/DTD/svg10.dtd">
<svg version="1.0" xmlns="http://www.w3.org/2000/svg"
 width="460.000000pt" height="371.000000pt" viewBox="0 0 460.000000 371.000000"
 preserveAspectRatio="xMidYMid meet">

<g transform="translate(0.000000,371.000000) scale(0.100000,-0.100000)"
fill="#000000" stroke="none">
<path d="M0 1855 l0 -1855 2300 0 2300 0 0 1855 0 1855 -2300 0 -2300 0 0
-1855z m2528 1397 c-46 -48 -214 -276 -308 -417 -41 -60 -75 -112 -77 -114 -3
-4 -206 206 -211 218 -1 4 14 22 34 41 l35 35 56 -62 c55 -64 75 -74 90 -49 8
14 85 103 163 189 52 58 240 211 248 202 3 -3 -10 -22 -30 -43z m-958 7 c140
-25 257 -60 360 -110 99 -46 210 -119 210 -136 0 -31 -27 -21 -80 32 -57 56
-58 57 -83 41 -24 -16 -29 -15 -118 23 -52 22 -130 49 -174 61 -87 23 -258 50
-317 50 l-38 0 0 -578 0 -577 123 -24 c143 -28 253 -64 354 -115 40 -20 75
-36 78 -36 3 0 5 122 5 270 l0 270 125 0 125 0 0 -357 c0 -197 4 -363 8 -370
5 -8 20 -1 50 24 l42 35 0 439 0 439 125 0 125 0 0 -360 c0 -198 2 -360 4
-360 2 0 37 14 77 31 92 39 208 74 311 94 44 8 82 15 84 15 2 0 4 261 4 580
l0 580 -40 0 c-55 0 -209 -26 -304 -50 -43 -12 -80 -19 -83 -17 -12 12 62 78
99 87 69 19 190 38 291 45 l97 7 1 -51 c1 -45 3 -66 8 -100 0 -4 29 -12 63
-15 109 -13 98 62 98 -661 l0 -635 -22 -4 c-13 -3 -72 -7 -133 -11 -262 -13
-519 -80 -777 -202 l-117 -56 -53 30 c-234 132 -544 216 -845 230 l-143 6 0
643 0 644 23 5 c12 3 47 9 77 13 l55 7 3 79 3 79 97 -7 c53 -4 144 -16 202
-27z m-1045 -359 c73 -25 71 -44 -10 -80 -37 -17 -69 -30 -71 -30 -11 0 -2 29
11 34 21 8 19 42 -5 66 -11 11 -20 25 -20 31 0 11 5 10 95 -21z m3283 18 c7
-7 12 -25 12 -41 0 -20 6 -30 20 -34 11 -3 20 -12 20 -19 0 -11 -12 -13 -57
-8 -85 8 -86 9 -80 50 3 20 11 42 18 50 14 17 51 18 67 2z m-76 -232 c-3 -28
0 -37 9 -34 8 3 16 15 19 27 7 31 25 26 25 -7 0 -37 28 -36 35 2 3 16 11 31
19 34 11 4 13 -4 7 -39 -4 -24 -11 -48 -15 -52 -9 -9 -101 1 -121 13 -9 6 -11
21 -6 54 9 57 32 58 28 2z m-3132 10 c0 -8 -21 -17 -57 -25 -73 -14 -83 -14
-83 3 0 8 18 18 48 24 69 14 92 14 92 -2z m-26 -132 c10 -27 7 -44 -9 -44 -8
0 -15 6 -15 14 0 8 -3 21 -6 30 -4 10 -1 16 9 16 8 0 18 -7 21 -16z m3161 -54
c12 -14 25 -18 41 -14 35 9 30 -15 -6 -27 -34 -12 -38 -26 -14 -44 35 -25 8
-32 -53 -12 -70 22 -75 32 -43 85 22 37 49 41 75 12z m-3055 -99 c15 -46 9
-68 -22 -80 -28 -10 -54 2 -63 29 -4 13 -15 20 -31 20 -43 0 -25 26 34 47 31
12 60 22 63 22 3 1 12 -17 19 -38z m2975 -85 c14 -10 17 -21 12 -51 -5 -30 -2
-41 11 -51 11 -8 14 -16 7 -22 -6 -6 -33 1 -73 19 l-62 29 20 39 c26 51 51 62
85 37z m-2884 -107 c32 -32 23 -88 -18 -112 -32 -18 -34 -18 -65 0 -28 16 -34
26 -36 60 -2 33 1 44 20 57 31 22 74 20 99 -5z m2685 -176 c-5 -24 0 -32 35
-57 28 -20 37 -32 30 -39 -7 -7 -23 -2 -50 16 -43 29 -61 33 -61 17 0 -5 -7
-10 -15 -10 -22 0 -19 12 17 58 37 49 52 53 44 15z m-2586 6 c0 -6 -9 -24 -21
-41 -12 -16 -19 -31 -17 -34 3 -2 22 3 43 12 53 22 64 6 31 -42 -30 -45 -23
-51 30 -29 25 10 41 12 47 6 11 -11 -63 -47 -115 -58 -35 -7 -38 16 -7 58 23
33 11 39 -36 17 -46 -21 -52 3 -14 66 31 51 59 72 59 45z m2505 -189 c55 -56
49 -67 -31 -56 -50 6 -54 -1 -19 -34 17 -16 22 -27 15 -34 -7 -7 -25 4 -55 34
-60 59 -59 70 12 70 l56 0 -21 23 c-22 23 -29 47 -14 47 4 0 30 -22 57 -50z
m-2267 -64 c12 -11 22 -23 22 -28 0 -15 -27 -8 -45 12 -10 11 -22 20 -27 20
-13 0 -9 -22 8 -41 26 -29 12 -43 -19 -19 -24 19 -28 20 -33 5 -4 -9 2 -23 15
-34 20 -18 28 -41 14 -41 -11 0 -73 63 -73 74 0 6 19 29 42 53 45 45 43 45 96
-1z m2062 -47 c0 -6 -12 -20 -26 -31 -34 -27 -17 -47 20 -23 34 22 49 10 19
-15 -42 -34 -24 -54 22 -24 13 9 29 13 35 9 12 -7 -55 -65 -74 -65 -12 1 -76
83 -76 99 0 10 60 61 73 61 4 0 7 -5 7 -11z m-1919 -67 c26 -23 31 -33 25 -55
-4 -17 -15 -29 -31 -33 -18 -4 -25 -13 -25 -30 0 -17 -4 -22 -15 -18 -8 4 -15
19 -15 34 0 34 -13 45 -30 25 -6 -7 -18 -11 -25 -8 -11 4 -5 18 23 59 20 29
43 53 49 54 7 0 27 -13 44 -28z m1788 -96 c35 -60 36 -66 18 -66 -8 0 -20 12
-27 28 l-14 27 -3 -30 c-7 -54 -9 -56 -49 -33 l-36 21 16 -32 c18 -34 13 -59
-8 -42 -18 15 -60 110 -53 118 4 4 24 -2 45 -12 20 -11 40 -21 45 -23 4 -2 7
19 7 47 0 68 19 67 59 -3z m-1615 -7 c20 -12 36 -25 36 -30 0 -12 -6 -11 -40
6 -38 20 -53 0 -19 -26 29 -22 18 -36 -16 -21 -18 8 -26 8 -31 0 -7 -11 1 -19
43 -44 10 -7 15 -15 11 -19 -8 -8 -85 22 -94 37 -7 10 54 118 66 118 5 0 25
-9 44 -21z m1366 -59 c0 -5 -14 -17 -31 -26 -38 -19 -26 -40 14 -25 36 14 38
-11 2 -27 -15 -7 -23 -17 -19 -26 5 -12 10 -12 39 0 23 9 36 10 40 3 9 -13 10
-12 -44 -33 -24 -9 -47 -13 -51 -9 -4 4 -17 33 -28 64 l-21 57 37 15 c45 18
62 20 62 7z m-1157 -38 c27 -23 19 -80 -14 -104 -23 -18 -30 -18 -69 -7 -40
12 -42 15 -37 44 3 17 12 48 20 68 15 36 16 36 49 25 18 -6 41 -18 51 -26z
m972 -37 c0 -5 -15 -11 -32 -13 -37 -4 -58 -31 -48 -62 8 -26 42 -35 71 -19
29 15 44 5 23 -16 -43 -43 -113 -20 -125 42 -9 44 32 86 79 81 17 -2 32 -7 32
-13z m-640 -45 c35 -29 -1 -80 -57 -80 -18 0 -28 -5 -28 -15 0 -8 -7 -15 -15
-15 -13 0 -15 8 -10 38 3 20 8 51 11 68 4 30 5 31 44 24 22 -4 46 -13 55 -20z
m423 -49 c37 -68 37 -71 17 -71 -8 0 -15 5 -15 10 0 16 -70 12 -76 -5 -6 -14
-34 -22 -34 -10 0 3 9 35 21 70 27 83 43 84 87 6z m-288 -6 l0 -55 35 0 c21 0
35 -5 35 -12 0 -9 -15 -12 -50 -10 l-50 4 0 64 c0 50 3 64 15 64 12 0 15 -13
15 -55z m167 -131 c23 -9 39 -27 54 -57 32 -65 23 -77 -56 -77 -53 0 -69 4
-86 21 -16 16 -28 20 -52 15 -17 -4 -35 -12 -39 -19 -13 -20 -10 -181 4 -195
18 -18 85 -15 92 4 11 29 6 34 -29 34 l-35 0 0 55 0 55 110 0 110 0 0 -85 c0
-98 -15 -145 -56 -172 -43 -28 -235 -26 -284 2 -57 33 -70 72 -70 205 0 131
13 172 67 203 61 35 197 41 270 11z m-1843 2 c66 -28 103 -124 85 -224 -16
-86 -67 -129 -159 -134 l-55 -3 -5 -40 -5 -40 -70 0 -70 0 -3 215 c-1 118 0
220 2 227 8 19 235 18 280 -1z m456 -4 c19 -9 45 -32 57 -51 39 -57 30 -177
-18 -242 -10 -13 -5 -27 24 -76 21 -34 37 -64 37 -67 0 -4 -33 -6 -72 -4 l-73
3 -35 62 c-48 86 -70 86 -70 -2 l0 -65 -70 0 -70 0 0 230 0 230 128 0 c101 0
134 -4 162 -18z m525 -42 l0 -55 -100 -5 c-94 -5 -100 -6 -103 -27 -3 -22 -1
-23 82 -23 l86 0 0 -60 0 -60 -85 0 c-84 0 -85 0 -85 -25 l0 -25 105 0 106 0
-3 -57 -3 -58 -172 -3 -173 -2 -1 27 c-5 111 -6 419 -2 426 2 4 82 6 176 5
l172 -3 0 -55z m381 34 c56 -41 68 -68 69 -152 0 -129 -44 -182 -167 -197
l-58 -6 0 -40 0 -40 -67 3 -68 3 -3 228 -2 229 134 -4 c117 -3 138 -6 162 -24z
m989 -34 l0 -55 -100 -5 c-94 -5 -100 -6 -103 -27 -3 -21 0 -22 85 -25 l88 -3
0 -55 0 -55 -87 -3 c-86 -3 -88 -3 -88 -27 0 -25 0 -25 105 -25 l106 0 -3 -57
-3 -58 -172 -3 -173 -2 0 230 0 230 173 -2 172 -3 0 -55z m267 -27 l53 -88 5
85 5 85 73 3 72 3 -2 -228 -3 -228 -45 -3 c-25 -1 -50 1 -56 5 -6 5 -39 55
-75 112 l-64 104 -3 -112 -3 -111 -69 0 -70 0 0 230 0 230 64 0 65 0 53 -87z
m443 -136 c0 -120 -3 -223 -6 -228 -3 -6 -35 -9 -70 -7 l-64 3 -3 228 -2 228
72 -3 73 -3 0 -218z m235 79 c0 -169 7 -196 49 -196 15 0 33 6 40 13 6 8 12
75 13 168 l3 154 73 3 72 3 0 -171 c0 -192 -7 -222 -61 -261 -30 -21 -44 -24
-134 -24 -112 0 -148 13 -181 69 -16 26 -19 57 -22 194 -2 89 -1 169 2 177 4
11 23 15 76 15 l70 0 0 -144z m663 120 c33 -22 57 -65 57 -101 0 -24 -2 -25
-68 -25 -56 0 -72 4 -87 20 -21 23 -53 26 -81 6 -29 -22 -8 -35 92 -57 49 -11
100 -28 114 -38 55 -40 47 -170 -13 -215 -22 -16 -46 -21 -125 -24 -154 -6
-208 24 -219 122 l-6 46 72 0 c66 0 72 -2 81 -24 14 -38 100 -40 100 -2 0 20
-23 31 -95 46 -133 26 -155 45 -155 137 0 97 61 136 210 130 72 -2 102 -7 123
-21z"/>
<path d="M490 2865 c0 -17 18 -19 38 -6 11 7 10 10 -3 15 -26 10 -35 7 -35 -9z"/>
<path d="M3757 2894 c-4 -4 -7 -16 -7 -26 0 -13 7 -18 26 -18 21 0 25 4 22 22
-3 23 -27 35 -41 22z"/>
<path d="M3682 2488 c-20 -20 -14 -38 14 -38 20 0 25 4 22 22 -4 26 -19 33
-36 16z"/>
<path d="M621 2401 c-10 -7 -11 -13 -1 -30 14 -28 35 -22 35 9 0 26 -13 34
-34 21z"/>
<path d="M3599 2289 c-9 -17 -8 -23 2 -30 21 -13 34 -5 37 24 4 33 -22 37 -39
6z"/>
<path d="M690 2196 c-6 -8 -10 -25 -8 -38 4 -32 62 -39 78 -9 23 44 -38 85
-70 47z"/>
<path d="M1197 1656 c-7 -19 18 -40 38 -32 20 7 19 32 -1 40 -24 9 -31 7 -37
-8z"/>
<path d="M1552 1443 c-9 -29 -9 -39 1 -45 31 -20 67 0 67 37 0 25 -18 45 -40
45 -10 0 -21 -14 -28 -37z"/>
<path d="M1897 1393 c-4 -3 -7 -15 -7 -25 0 -12 7 -18 24 -18 33 0 44 20 21
37 -21 15 -29 16 -38 6z"/>
<path d="M2337 1363 c-12 -12 -7 -33 8 -33 17 0 19 9 7 28 -5 7 -11 9 -15 5z"/>
<path d="M292 1043 l3 -68 35 2 c41 2 60 24 60 69 0 42 -23 64 -66 64 l-35 0
3 -67z"/>
<path d="M732 1058 c3 -51 4 -53 34 -56 38 -4 64 19 64 57 0 37 -17 51 -63 51
l-38 0 3 -52z"/>
<path d="M1632 1043 c3 -62 5 -68 26 -71 13 -2 34 4 48 12 19 13 24 25 24 59
0 53 -13 67 -62 67 l-39 0 3 -67z"/>
</g>
</svg>
